<?xml version="1.0" encoding="UTF-8"?> <!-- Generator: Adobe Illustrator 23.0.2, SVG Export Plug-In . SVG Version: 6.00 Build 0) --> <svg xmlns="http://www.w3.org/2000/svg" xmlns:xlink="http://www.w3.org/1999/xlink" id="Слой_1" x="0px" y="0px" width="1920px" height="1080px" viewBox="0 0 1920 1080" style="enable-background:new 0 0 1920 1080;" xml:space="preserve"> <style type="text/css"> .st0{opacity:0.34;fill:#C4C3FC;} .st1{fill:#78E2FF;} .st2{fill:url(#SVGID_1_);} .st3{opacity:0.2;fill:#00A4D6;} .st4{fill:url(#SVGID_2_);} .st5{opacity:0.2;} .st6{fill:#18BDF7;} .st7{opacity:0.2;fill:#18BDF7;} .st8{fill:#5851BC;} .st9{opacity:0.8;} .st10{opacity:0.15;fill:#00A4D6;} .st11{opacity:0.1;fill:none;stroke:#00A4D6;stroke-width:7.3591;stroke-miterlimit:10;} .st12{opacity:0.5;fill:none;stroke:#00A4D6;stroke-width:1.8398;stroke-miterlimit:10;} .st13{opacity:0.1;fill:none;stroke:#00A4D6;stroke-width:11.5073;stroke-miterlimit:10;} .st14{fill:#4A41A3;} .st15{opacity:0.2;fill:#60F4DF;} .st16{opacity:0.2;fill:#FFFFFF;} .st17{opacity:0.39;fill:#FFFFFF;} .st18{opacity:0.8;fill:#FFFFFF;} .st19{opacity:0.5;fill:#9CD7FF;} .st20{opacity:0.2;fill:#9CD7FF;} .st21{opacity:0.3;} .st22{fill:#FFFFFF;} .st23{opacity:0.5;fill:#FFFFFF;} .st24{opacity:0.3;fill:#FFFFFF;} .st25{fill:#9CD7FF;} .st26{fill:#5FB0E7;} .st27{opacity:0.5;fill:#00A4D6;} .st28{fill:#FFE1BD;} .st29{fill:#FCCB95;} .st30{fill:#594A5F;} .st31{fill:#F9B253;} .st32{fill:#2C1E56;} .st33{fill:#39297F;} .st34{fill:#4C4199;} .st35{fill:#F29127;} .st36{fill:#00215B;} .st37{opacity:0.3;fill:#5FB0E7;} .st38{opacity:0.5;} .st39{fill:#00A4D6;} .st40{fill:#3A3A3A;} .st41{fill:#4C4051;} .st42{fill:#F4D4B3;} .st43{fill:#1C44B5;} .st44{fill:#FFD1AB;} .st45{fill:#AEC1FF;} .st46{opacity:0.5;fill:#AEC1FF;} .st47{fill:#B8ECFF;} .st48{fill:#15A7CE;} .st49{fill:#EBFAFF;} .st50{fill:#B2EBF9;} .st51{fill:#80D4DD;} .st52{opacity:0.47;fill:url(#SVGID_3_);} .st53{fill:#61C5F2;} .st54{opacity:0.58;fill:url(#SVGID_4_);} .st55{fill:#39A7D8;} .st56{fill:#258BAF;} .st57{opacity:0.58;fill:url(#SVGID_5_);} .st58{fill:none;stroke:#00BFD8;stroke-width:1.9524;stroke-miterlimit:10;} .st59{fill:none;stroke:#00BFD8;stroke-width:1.9524;stroke-linecap:round;stroke-miterlimit:10;} </style> <path class="st0" d="M1931-206.1c0,0-279.7-250.4-570.8,26.5c-322.9,307.2-145.6,849.7-416.3,865s-366.9-57.9-540.1,50.3 c-201.1,125.6-157.1,353.9-157.1,353.9H1931V-206.1z"></path> <path class="st0" d="M1931,575.7c0,0-118.5-134.1-299.8-87.8c-272.6,69.6-198.5,301.6-399.5,349.1c-201.1,47.5-774.9-53.1-970,0 C66.6,889.9,57.5,1089.6,57.5,1089.6H1931L1931,575.7z"></path> <g> <path class="st1" d="M856.7,1017.1l-15.3-52c0,0,23.3-98.8-25.8-103.2c-46.6-4.2-34.1,84.8-32.6,94.3c-1.6-10-18.5-108.7-59-93.7 c-45.4,16.8,27.5,108.4,27.5,108.4c-16.3-21.1-58.5-52.4-73.3-19.3c-6.5,14.4,7.4,27.9,25.1,38.5c-11.3-2.7-22.9-4-26.7,0.6 c-10.4,12.8,10.9,27.7,52,28.5c14.9,0.3,22.4-2.8,26-6.8c0.5,0.2,0.8,0.3,0.8,0.3L856.7,1017.1z"></path> <linearGradient id="SVGID_1_" gradientUnits="userSpaceOnUse" x1="833.7963" y1="1014.9399" x2="713.5975" y2="895.9676"> <stop offset="0" style="stop-color:#2484C6"></stop> <stop offset="1" style="stop-color:#2484C6;stop-opacity:0"></stop> </linearGradient> <path class="st2" d="M856.7,1017.1l-15.3-52c0,0,23.3-98.8-25.8-103.2c-46.6-4.2-34.1,84.8-32.6,94.3c-1.6-10-18.5-108.7-59-93.7 c-45.4,16.8,27.5,108.4,27.5,108.4c-16.3-21.1-58.5-52.4-73.3-19.3c-6.5,14.4,7.4,27.9,25.1,38.5c-11.3-2.7-22.9-4-26.7,0.6 c-10.4,12.8,10.9,27.7,52,28.5c14.9,0.3,22.4-2.8,26-6.8c0.5,0.2,0.8,0.3,0.8,0.3L856.7,1017.1z"></path> <path class="st3" d="M781.3,1019.9c0,0-51-19.7-38.7-36.8c7.8-10.7,22.8,7.5,22.8,7.5s-19.7-25.8-2.7-33.7 c17.7-8.2,27.2,21.6,27.2,21.6s-6.6-26.1,6.9-29.8c13.5-3.7,14.5,26.1,14.5,26.1s17.4-23.5,27.8-4.8c9.4,17-19.2,50.8-19.2,50.8"></path> <path class="st1" d="M1157.9,997.9c0.9-9.4-20.2-9.4-36.4-7.7c21.5-12.2,40.2-28,33.1-43.8c-14.8-33.1-63.1,3.4-79.4,24.5 c0,0,72.9-91.5,27.5-108.4c-40.5-15-57.5,83.7-59,93.7c1.5-9.5,14-98.5-32.6-94.3c-49.1,4.4-41.1,155.2-41.1,155.2 S1154.8,1030.6,1157.9,997.9z"></path> <linearGradient id="SVGID_2_" gradientUnits="userSpaceOnUse" x1="987.6525" y1="1019.6752" x2="1128.7019" y2="885.9846"> <stop offset="0" style="stop-color:#2484C6"></stop> <stop offset="1" style="stop-color:#2484C6;stop-opacity:0"></stop> </linearGradient> <path class="st4" d="M1157.9,997.9c0.9-9.4-20.2-9.4-36.4-7.7c21.5-12.2,40.2-28,33.1-43.8c-14.8-33.1-63.1,3.4-79.4,24.5 c0,0,72.9-91.5,27.5-108.4c-40.5-15-57.5,83.7-59,93.7c1.5-9.5,14-98.5-32.6-94.3c-49.1,4.4-41.1,155.2-41.1,155.2 S1154.8,1030.6,1157.9,997.9z"></path> <path class="st3" d="M1044.6,1023.3c0,0,51-19.7,38.7-36.8c-7.8-10.7-22.8,7.5-22.8,7.5s19.7-25.8,2.7-33.7 c-17.7-8.2-27.2,21.6-27.2,21.6s6.6-26.1-6.9-29.8c-13.5-3.7-14.5,26.1-14.5,26.1s-17.4-23.5-27.8-4.8c-9.4,17,19.2,50.8,19.2,50.8 "></path> </g> <g> <g> <g class="st5"> <path class="st6" d="M453.6,611c-10.9-12.5-27-20.4-44.9-20.4c-16.6,0-31.6,6.8-42.4,17.8c-10.6,10.7-17.1,25.5-17.1,41.7 c0,32.9,26.7,59.6,59.5,59.6c9.5,0,18.6-2.3,26.6-6.3c16-8,27.9-22.9,31.7-40.8c0.9-4,1.3-8.2,1.3-12.4 C468.3,635.2,462.7,621.5,453.6,611z M457.1,660.5c-3.2,14.9-13,27.3-26.3,33.9c-6.6,3.3-14.1,5.2-22.1,5.2 c-27.3,0-49.4-22.2-49.4-49.4c0-13.5,5.4-25.7,14.2-34.6c9-9.1,21.4-14.8,35.2-14.8c14.9,0,28.2,6.6,37.2,17 c7.6,8.7,12.2,20.1,12.2,32.5C458.1,653.7,457.8,657.1,457.1,660.5z"></path> </g> <path class="st7" d="M466.9,662.6c-3.8,17.9-15.7,32.9-31.7,40.8l-4.5-9c13.3-6.6,23.1-19,26.3-33.9L466.9,662.6z"></path> <path class="st8" d="M453.6,611l-7.6,6.6c-9.1-10.4-22.4-17-37.2-17c-13.8,0-26.3,5.7-35.2,14.8l-7.2-7.1 c10.8-11,25.9-17.8,42.4-17.8C426.6,590.6,442.7,598.5,453.6,611z"></path> </g> <g class="st9"> <g class="st5"> <path class="st6" d="M802.3,105.9c-7.3-8.3-18-13.6-29.9-13.6c-11,0-21,4.5-28.2,11.9c-7,7.1-11.4,16.9-11.4,27.8 c0,21.9,17.8,39.6,39.6,39.6c6.4,0,12.4-1.5,17.7-4.2c10.6-5.3,18.5-15.3,21.1-27.2c0.6-2.7,0.9-5.4,0.9-8.3 C812,122,808.4,112.9,802.3,105.9z M804.6,138.8c-2.1,9.9-8.7,18.1-17.5,22.6c-4.4,2.2-9.4,3.5-14.7,3.5 c-18.1,0-32.9-14.8-32.9-32.9c0-9,3.6-17.1,9.4-23c6-6.1,14.3-9.8,23.4-9.8c9.9,0,18.8,4.4,24.8,11.3c5.1,5.8,8.1,13.3,8.1,21.6 C805.3,134.3,805.1,136.6,804.6,138.8z"></path> </g> <path class="st7" d="M811.2,140.2c-2.5,11.9-10.4,21.9-21.1,27.2l-3-6c8.8-4.4,15.4-12.7,17.5-22.6L811.2,140.2z"></path> <path class="st8" d="M802.3,105.9l-5.1,4.4c-6-6.9-14.9-11.3-24.8-11.3c-9.2,0-17.5,3.8-23.4,9.8l-4.8-4.7 c7.2-7.3,17.2-11.9,28.2-11.9C784.3,92.3,795,97.6,802.3,105.9z"></path> </g> <path class="st3" d="M360.5,804.8l6-4.5c-2.9-4.6-6.9-8.6-11.5-11.5l-4.5,6c-2.6-1.6-5.4-2.8-8.4-3.5l1.1-7.5 c-2.6-0.6-5.3-0.9-8.1-0.9c-2.8,0-5.5,0.3-8.1,0.9l1.1,7.5c-3,0.7-5.8,1.9-8.4,3.5l-4.5-6c-4.6,2.9-8.6,6.9-11.5,11.5l6,4.5 c-1.6,2.6-2.8,5.4-3.5,8.4l-7.5-1.1c-0.6,2.6-0.9,5.3-0.9,8.1c0,2.8,0.3,5.5,0.9,8.1l7.5-1.1c0.7,3,1.9,5.8,3.5,8.4l-6,4.5 c2.9,4.6,6.9,8.6,11.5,11.5l4.5-6c2.6,1.6,5.4,2.8,8.4,3.5l-1.1,7.5c2.6,0.6,5.3,0.9,8.1,0.9c2.8,0,5.5-0.3,8.1-0.9l-1.1-7.5 c3-0.7,5.8-1.9,8.4-3.5l4.5,6c4.6-2.9,8.6-6.9,11.5-11.5l-6-4.5c1.6-2.6,2.8-5.4,3.5-8.4l7.5,1.1c0.6-2.6,0.9-5.3,0.9-8.1 c0-2.8-0.3-5.5-0.9-8.1l-7.5,1.1C363.3,810.1,362.1,807.3,360.5,804.8z M335.1,840c-10.9,0-19.8-8.9-19.8-19.8 c0-10.9,8.9-19.8,19.8-19.8s19.8,8.9,19.8,19.8C354.9,831.1,346,840,335.1,840z"></path> <path class="st10" d="M1516.6,238.5l9-6.7c-4.4-7-10.3-12.8-17.3-17.3l-6.7,9c-3.9-2.3-8.1-4.1-12.6-5.2l1.6-11.2 c-3.9-0.9-8-1.4-12.2-1.4s-8.3,0.5-12.2,1.4l1.6,11.2c-4.5,1.1-8.7,2.9-12.6,5.2l-6.7-9c-7,4.4-12.8,10.3-17.3,17.3l9,6.7 c-2.3,3.9-4.1,8.1-5.2,12.6l-11.2-1.6c-0.9,3.9-1.4,8-1.4,12.2c0,4.2,0.5,8.3,1.4,12.2l11.2-1.6c1.1,4.5,2.9,8.7,5.2,12.6l-9,6.7 c4.4,7,10.3,12.8,17.3,17.3l6.7-9c3.9,2.3,8.1,4.1,12.6,5.2l-1.6,11.2c3.9,0.9,8,1.4,12.2,1.4s8.3-0.5,12.2-1.4L1489,305 c4.5-1.1,8.7-2.9,12.6-5.2l6.7,9c7-4.4,12.8-10.3,17.3-17.3l-9-6.7c2.3-3.9,4.1-8.1,5.2-12.6l11.2,1.6c0.9-3.9,1.4-8,1.4-12.2 c0-4.2-0.5-8.3-1.4-12.2l-11.2,1.6C1520.7,246.6,1518.9,242.4,1516.6,238.5z M1478.5,291.4c-16.4,0-29.7-13.3-29.7-29.7 c0-16.4,13.3-29.7,29.7-29.7s29.7,13.3,29.7,29.7C1508.1,278.1,1494.9,291.4,1478.5,291.4z"></path> <path class="st11" d="M664,61c0,8.5-6.9,15.3-15.3,15.3c-8.5,0-15.3-6.9-15.3-15.3s6.9-15.3,15.3-15.3C657.2,45.7,664,52.6,664,61z "></path> <path class="st12" d="M1257.7,116.7c0,8.5-6.9,15.3-15.3,15.3s-15.3-6.9-15.3-15.3s6.9-15.3,15.3-15.3S1257.7,108.2,1257.7,116.7z"></path> <circle class="st13" cx="850.9" cy="229.8" r="24"></circle> <path class="st13" d="M1558.3,587.6c0,13.2-10.7,24-24,24s-24-10.7-24-24c0-13.2,10.7-24,24-24S1558.3,574.3,1558.3,587.6z"></path> </g> <g> <g> <path class="st8" d="M1412.4,302.5v575.4c0,13.7-11.1,24.8-24.8,24.8H438.3c-13.7,0-24.8-11.1-24.8-24.8V302.5 c0-13.7,11.1-24.8,24.8-24.8h949.3C1401.3,277.7,1412.4,288.8,1412.4,302.5z"></path> <polygon class="st8" points="1014.6,1008.7 811.3,1008.7 833.4,921.9 838.4,902.2 848.1,864.1 977.8,864.1 987.5,902.2 992.5,921.9 "></polygon> <polygon class="st14" points="992.5,921.9 833.4,921.9 838.4,902.2 987.5,902.2 "></polygon> <path class="st14" d="M1092.6,1032.7H733.3c-8.6,0-15.6-7-15.6-15.6l0,0c0-8.6,7-15.6,15.6-15.6h359.3c8.6,0,15.6,7,15.6,15.6l0,0 C1108.2,1025.7,1101.2,1032.7,1092.6,1032.7z"></path> <rect x="411.6" y="366.5" class="st15" width="1000.8" height="436.6"></rect> <path class="st14" d="M912.9,874.3L912.9,874.3c-12.7,0-23-10.4-23-23l0,0c0-12.7,10.4-23,23-23l0,0c12.7,0,23,10.4,23,23l0,0 C935.9,864,925.6,874.3,912.9,874.3z"></path> </g> <g> <g> <path class="st16" d="M1378,648.1H769.9c-6.7,0-12.1-5.4-12.1-12.1V390.2c0-6.7,5.4-12.1,12.1-12.1H1378 c6.7,0,12.1,5.4,12.1,12.1v245.9C1390.1,642.7,1384.7,648.1,1378,648.1z"></path> <path class="st17" d="M1373.1,522.7v102.6c0,4.6-3.7,8.3-8.3,8.3H780.7c-4.6,0-8.3-3.7-8.3-8.3V399.9c53.9,0,80.8,20.2,96.6,46.7 c1,1.7,2,3.4,2.9,5.2c26.6,50.4,18.6,119.5,77.2,119.5c2.2,0,4.2-0.3,6.2-0.8c1.3-0.3,2.5-0.7,3.6-1.2 c39.4-16.6,33.3-134.4,103.4-133.5c15,0.2,26.2,5.9,35,15.1c0.8,0.9,1.7,1.8,2.5,2.8c31.4,36.8,31.8,118.9,80,133.8 c17.4,5.4,32.7-1.9,47.9-13.9c1-0.8,1.9-1.5,2.9-2.4c32-26.6,63.9-72.1,113.4-60.9c1.4,0.3,2.9,0.7,4.3,1.1 C1356,513.7,1364.3,517.3,1373.1,522.7z"></path> <path class="st18" d="M1373.1,502c-10.5,0.1-18.5,3.7-24.9,9.4c-11.9,10.6-18.3,28.6-24.6,46.2c-9.4,26.4-19.1,53.6-47.4,53.6 c-1.5,0-3.1-0.1-4.7-0.2c-18.4-1.8-32-16.8-44-37.4c-7.4-12.7-14.2-27.6-21.2-42.9c-19.6-42.9-39.8-87.4-77.2-88.4 c-0.4,0-0.8,0-1.3,0c-11.3,0-20.5,4.3-28.3,11.4c-15.8,14.4-25.8,40.3-35.7,65.7c-14.5,37.6-29.5,76.4-63.4,77.2 c-24.4,0.5-35.4-8.7-45.4-26.1c-3.8-6.8-7.5-14.8-11.7-24c-7.7-16.8-17.2-37.6-33-61.9c-10.6-16.3-24.1-26.6-38.6-32.9 c-39.1-17-85.1-4.6-99.4,0.1V448c15.4-4.9,58.4-15.9,96.6-1.4c16.7,6.3,32.4,17.4,44.6,36.1c16,24.5,25.6,45.5,33.3,62.4 c4.3,9.5,8.1,17.6,12,24.3c9.3,16.2,19.6,24.1,41.7,23.6c31.4-0.7,45.3-36.7,60.1-74.8c10-25.9,20.2-52.3,36.6-67.2 c8.7-7.9,19.1-12.6,32.2-12.3c39.7,1.1,60.4,46.5,80.4,90.6c6.8,14.9,13.5,29.5,20.7,42c11.5,19.9,24.4,34.4,41.4,36.1 c29.1,2.9,38.4-23.3,48.2-51c6.1-17.3,12.4-34.8,23.7-46.1c7.2-7.2,16.5-11.8,29.2-12L1373.1,502z"></path> </g> <g> <path class="st19" d="M1379.8,718.7H1066c-5.7,0-10.3-4.6-10.3-10.3v-38.6c0-5.7,4.6-10.3,10.3-10.3h313.8 c5.7,0,10.3,4.6,10.3,10.3v38.6C1390.1,714.1,1385.5,718.7,1379.8,718.7z"></path> <path class="st16" d="M1379.8,790.2H1066c-5.7,0-10.3-4.6-10.3-10.3v-38.6c0-5.7,4.6-10.3,10.3-10.3h313.8 c5.7,0,10.3,4.6,10.3,10.3V780C1390.1,785.6,1385.5,790.2,1379.8,790.2z"></path> </g> <g> <path class="st20" d="M735.5,508.8H449.4c-6.7,0-12.1-5.4-12.1-12.1V390.2c0-6.7,5.4-12.1,12.1-12.1h286.2 c6.7,0,12.1,5.4,12.1,12.1v106.5C747.6,503.4,742.2,508.8,735.5,508.8z"></path> <g class="st21"> <path class="st22" d="M703.9,497.7h-15.4c-1.7,0-3-1.4-3-3V414c0-1.7,1.4-3,3-3h15.4c1.7,0,3,1.4,3,3v80.7 C706.9,496.4,705.5,497.7,703.9,497.7z"></path> <path class="st22" d="M733,497.7h-14.7c-1.9,0-3.4-1.5-3.4-3.4V394c0-1.9,1.5-3.4,3.4-3.4H733c1.9,0,3.4,1.5,3.4,3.4v100.3 C736.4,496.2,734.9,497.7,733,497.7z"></path> <path class="st22" d="M467.6,497.7h-14.7c-1.9,0-3.4-1.5-3.4-3.4V394c0-1.9,1.5-3.4,3.4-3.4h14.7c1.9,0,3.4,1.5,3.4,3.4v100.3 C471,496.2,469.5,497.7,467.6,497.7z"></path> <path class="st22" d="M497.5,497.7H482c-1.6,0-2.9-1.3-2.9-2.9V419c0-1.6,1.3-2.9,2.9-2.9h15.6c1.6,0,2.9,1.3,2.9,2.9v75.8 C500.5,496.4,499.2,497.7,497.5,497.7z"></path> <path class="st22" d="M526.6,497.7h-14.7c-1.9,0-3.4-1.5-3.4-3.4V394c0-1.9,1.5-3.4,3.4-3.4h14.7c1.9,0,3.4,1.5,3.4,3.4v100.3 C530,496.2,528.5,497.7,526.6,497.7z"></path> <path class="st22" d="M557,497.7h-16.5c-1.4,0-2.5-1.1-2.5-2.5v-54.1c0-1.4,1.1-2.5,2.5-2.5H557c1.4,0,2.5,1.1,2.5,2.5v54.1 C559.5,496.6,558.3,497.7,557,497.7z"></path> <path class="st22" d="M585.6,497.7h-14.7c-1.9,0-3.4-1.5-3.4-3.4V394c0-1.9,1.5-3.4,3.4-3.4h14.7c1.9,0,3.4,1.5,3.4,3.4v100.3 C589,496.2,587.4,497.7,585.6,497.7z"></path> <path class="st22" d="M615.4,497.7H600c-1.7,0-3-1.4-3-3V414c0-1.7,1.4-3,3-3h15.4c1.7,0,3,1.4,3,3v80.7 C618.4,496.4,617.1,497.7,615.4,497.7z"></path> <path class="st22" d="M644.6,497.7h-14.7c-1.9,0-3.4-1.5-3.4-3.4V394c0-1.9,1.5-3.4,3.4-3.4h14.7c1.9,0,3.4,1.5,3.4,3.4v100.3 C647.9,496.2,646.4,497.7,644.6,497.7z"></path> <path class="st22" d="M674.5,497.7h-15.6c-1.6,0-2.9-1.3-2.9-2.9V419c0-1.6,1.3-2.9,2.9-2.9h15.6c1.6,0,2.9,1.3,2.9,2.9v75.8 C677.4,496.4,676.1,497.7,674.5,497.7z"></path> </g> </g> <g> <path class="st16" d="M735.5,649.5H449.4c-6.7,0-12.1-5.4-12.1-12.1V530.9c0-6.7,5.4-12.1,12.1-12.1h286.2 c6.7,0,12.1,5.4,12.1,12.1v106.5C747.6,644.1,742.2,649.5,735.5,649.5z"></path> <path class="st16" d="M735.5,790.2H449.4c-6.7,0-12.1-5.4-12.1-12.1V671.6c0-6.7,5.4-12.1,12.1-12.1h286.2 c6.7,0,12.1,5.4,12.1,12.1v106.5C747.6,784.8,742.2,790.2,735.5,790.2z"></path> <path class="st23" d="M731.9,535.8c-3.2,0-5.8,2.6-5.8,5.8c0,1.1,0.3,2,0.8,2.9l-47.4,53.6c-0.7-0.3-1.4-0.4-2.2-0.4 c-0.8,0-1.7,0.2-2.4,0.5l-51-50.2c0.3-0.7,0.5-1.5,0.5-2.4c0-3.2-2.6-5.8-5.8-5.8c-3.2,0-5.8,2.6-5.8,5.8c0,0.9,0.2,1.7,0.6,2.5 l-65.7,70.9c-0.9-0.7-2.1-1.1-3.3-1.1c-1,0-2,0.3-2.8,0.8l-35.9-46.8c0.7-1,1.1-2.1,1.1-3.4c0-3.2-2.6-5.8-5.8-5.8 c-3.2,0-5.8,2.6-5.8,5.8c0,1,0.3,2,0.8,2.8l-40.2,52.2c-0.6-0.2-1.3-0.4-2-0.4c-3.2,0-5.8,2.6-5.8,5.8c0,3.2,2.6,5.8,5.8,5.8 c3.2,0,5.8-2.6,5.8-5.8c0-1.2-0.3-2.2-0.9-3.1l40.1-52c0.7,0.3,1.5,0.5,2.3,0.5c0.6,0,1.2-0.1,1.7-0.3l36.4,47.4 c-0.3,0.7-0.5,1.5-0.5,2.3c0,3.2,2.6,5.8,5.8,5.8c3.2,0,5.8-2.6,5.8-5.8c0-0.6-0.1-1.2-0.3-1.7l66-71.2c0.8,0.4,1.7,0.7,2.7,0.7 c1,0,2-0.3,2.8-0.7l50.9,50c-0.5,0.8-0.7,1.8-0.7,2.8c0,3.2,2.6,5.8,5.8,5.8c3.2,0,5.8-2.6,5.8-5.8c0-1.1-0.3-2.1-0.8-3 l47.4-53.5c0.7,0.3,1.5,0.5,2.3,0.5c3.2,0,5.8-2.6,5.8-5.8C737.8,538.4,735.2,535.8,731.9,535.8z"></path> <path class="st24" d="M705.8,680.5h-252c-2.9,0-5.3-2.4-5.3-5.3v-0.5c0-2.9,2.4-5.3,5.3-5.3h252c2.9,0,5.3,2.4,5.3,5.3v0.5 C711.1,678.1,708.7,680.5,705.8,680.5z"></path> <path class="st24" d="M679.7,700.2H453.6c-2.8,0-5-2.2-5-5v-1.1c0-2.8,2.2-5,5-5h226.1c2.8,0,5,2.2,5,5v1.1 C684.7,698,682.5,700.2,679.7,700.2z"></path> <path class="st24" d="M732.3,719.9H454.1c-3,0-5.5-2.5-5.5-5.5l0,0c0-3,2.5-5.5,5.5-5.5h278.1c3,0,5.5,2.5,5.5,5.5l0,0 C737.8,717.4,735.3,719.9,732.3,719.9z"></path> <path class="st24" d="M654,739.6H453.3c-2.6,0-4.7-2.1-4.7-4.7v-1.6c0-2.6,2.1-4.7,4.7-4.7H654c2.6,0,4.7,2.1,4.7,4.7v1.6 C658.7,737.5,656.6,739.6,654,739.6z"></path> <path class="st24" d="M708.6,759.3H453.9c-2.9,0-5.3-2.4-5.3-5.3v-0.5c0-2.9,2.4-5.3,5.3-5.3h254.7c2.9,0,5.3,2.4,5.3,5.3v0.5 C713.9,756.9,711.5,759.3,708.6,759.3z"></path> <path class="st24" d="M732.3,779H454.1c-3,0-5.5-2.5-5.5-5.5l0,0c0-3,2.5-5.5,5.5-5.5h278.1c3,0,5.5,2.5,5.5,5.5l0,0 C737.8,776.5,735.3,779,732.3,779z"></path> </g> <g> <path class="st19" d="M889.2,724.9c0,36.1-29.3,65.3-65.3,65.3c-36.1,0-65.3-29.3-65.3-65.3c0-36.1,29.3-65.3,65.3-65.3 c5.2,0,10.2,0.6,15.1,1.8c27.2,6.4,47.8,29.8,50,58.4C889.1,721.4,889.2,723.2,889.2,724.9z"></path> <path class="st25" d="M889,719.7l-65.1,5.2l15.1-63.5C866.2,667.8,886.8,691.2,889,719.7z"></path> <path class="st19" d="M1034.7,670H909c-2.4,0-4.3-1.9-4.3-4.3l0,0c0-2.4,1.9-4.3,4.3-4.3h125.7c2.4,0,4.3,1.9,4.3,4.3l0,0 C1039,668,1037,670,1034.7,670z"></path> <path class="st19" d="M1016.1,687.1H908.6c-2.2,0-4-1.8-4-4v-0.6c0-2.2,1.8-4,4-4h107.5c2.2,0,4,1.8,4,4v0.6 C1020.1,685.3,1018.3,687.1,1016.1,687.1z"></path> <path class="st19" d="M990.4,704.2h-82.2c-1.9,0-3.5-1.6-3.5-3.5v-1.6c0-1.9,1.6-3.5,3.5-3.5h82.2c1.9,0,3.5,1.6,3.5,3.5v1.6 C993.9,702.6,992.3,704.2,990.4,704.2z"></path> <path class="st19" d="M1034.7,721.3H909c-2.4,0-4.3-1.9-4.3-4.3l0,0c0-2.4,1.9-4.3,4.3-4.3h125.7c2.4,0,4.3,1.9,4.3,4.3l0,0 C1039,719.4,1037,721.3,1034.7,721.3z"></path> <path class="st19" d="M1020.2,738.4H908.7c-2.2,0-4.1-1.8-4.1-4.1v-0.5c0-2.2,1.8-4.1,4.1-4.1h111.5c2.2,0,4.1,1.8,4.1,4.1v0.5 C1024.2,736.6,1022.4,738.4,1020.2,738.4z"></path> <path class="st19" d="M1034.7,755.5H909c-2.4,0-4.3-1.9-4.3-4.3l0,0c0-2.4,1.9-4.3,4.3-4.3h125.7c2.4,0,4.3,1.9,4.3,4.3l0,0 C1039,753.6,1037,755.5,1034.7,755.5z"></path> <path class="st19" d="M1009.3,772.7H908.5c-2.1,0-3.9-1.7-3.9-3.9v-0.9c0-2.1,1.7-3.9,3.9-3.9h100.8c2.1,0,3.9,1.7,3.9,3.9v0.9 C1013.2,770.9,1011.5,772.7,1009.3,772.7z"></path> <path class="st19" d="M1034.7,789.8H909c-2.4,0-4.3-1.9-4.3-4.3l0,0c0-2.4,1.9-4.3,4.3-4.3h125.7c2.4,0,4.3,1.9,4.3,4.3l0,0 C1039,787.8,1037,789.8,1034.7,789.8z"></path> </g> </g> </g> <g> <g class="st21"> <g> <path class="st26" d="M741.8,580.4c0.3-1.4-1.3-1.8-3,1c-2.4,3.9-6,6-10.6,7.1c-0.3-0.7,0.7-1,1.5-2.6c0.8-1.8,0.3-3.1-0.5-3.3 c-0.6-0.2-2,1.8-2.5,2.2c-1.8,1.5-3.6,3.1-5.4,4.6c-2,1.7-3,2.9-3.9,5.3c0,0.1-0.1,0.7-0.3,1.3c-12,9.1-51.5,20.5-56.8,23.8 c-1.3,0.8-9.6,1-19.7,0.9c0-1.3-0.1-2-0.1-2s-16.3-2.7-24.1-7.3c-4.6-2.7-9.2-2.5-11.1-2.2c-0.4-0.6-0.7-1.3-1.2-1.8 c-0.1-0.1-0.1-0.2-0.2-0.3c-2-2.3-4.9-3.5-6.7-6c-0.2-3-0.3-9.6,1.3-12.6c1.1-2.2,5.6-6.2,10.8-10.4c2.3-1.8,4.1-5.7,2.7-11.6 c-2-8.9-2.8-12.8-4-15.5c-0.9-1.9-2.5-3.2-3.4-4.8c-0.2-0.3-0.3-0.6-0.5-0.9c2.3-2.6-4.5-21.6-25.3-21.1 c-5.3,0.1-10.7,0.5-15.4,2.9c-4.7,2.4-9.9,6.6-9.6,10.8c-7.4,1.4-8.4,8.9-9,11.8c-0.8,4-1,8.1-0.4,12.2c0.8,6,3,11.7,4.2,17.7 c1,4.8,1.3,10.2-0.7,14.8c-1.8,4.4-6.2,6.8-8.5,11.1c-2.8,5.5-2.6,12.3,0.3,17.7c1.3,2.5,2.7,4.6,3.9,6.7 c-2,6.1-4.4,14.4-6.1,22.3l-54.7,9.3c-1.6,0.3-2.7,1.8-2.4,3.4l13.6,79.8c0.3,1.6,1.8,2.7,3.4,2.4l46.2-7.8 c-0.7,6-0.8,12.4,0.1,18.9c0.7,5.4,6.2,20.3,7,25.6c1.9,12.3,5.9,30.4,5.6,44.4c1.2,0.9,2.5,1.7,3.8,2.4 c2.9,16.9,5.4,32.3,5.1,34.6c-0.7,5.3-6.5,20.1-8.5,35.5c-0.1,0.6-0.1,1.3-0.2,2h30.3c2.1-11.1,3.8-20.9,4.9-28.4v0 c0.3-1.9,0.5-3.5,0.7-5.1c0-0.1,0-0.3,0.1-0.4c0.1-0.8,0.1-1.6,0.2-2.4c0.1-1.3,0.2-2.6,0.3-4c0-0.4,0-0.8,0.1-1.3 c0.1-1.1,0.1-2.3,0.1-3.6c0-0.3,0-0.7,0.1-1c0-1.5,0.1-3.1,0.1-4.7c0-0.5,0-1,0-1.5c0-1.3,0-2.5,0-3.8c0-0.6,0-1.2,0-1.8v-1.5 c5.1,14.7,9,26.1,9,26.1s-4.4,15.3-5.4,33.3h29c0.9-16.8,1.7-30.7,2-37.4c0.4-11.3,0.1-22.8-0.9-35c0,0,0,0,0,0 c1.8-16.9,1.5-30.4,0.2-53.9c-1-18.6-5.9-36.5-10.3-49.7l28.5-4.9c1.6-0.3,2.7-1.8,2.4-3.4l-12.6-74.2c3.1,0,4.4,0.2,4.4,0.2 c0.3-1,0.5-2.1,0.6-3.4c10.3-0.9,18.9-1.8,21-2.2c16.7-3.3,58.2-31.4,61.9-33.9c2.5,0.6,10.2-2.1,12.2-5.3 c0.7-1.1,1.1-2.3,0.9-3.5c1.2-1.4,3.2-6.3-0.3-5.3C739.9,588.3,740.8,584.6,741.8,580.4z"></path> </g> </g> <g> <g> <path class="st27" d="M670.8,1036.5c0,5-36.6,9.1-81.7,9.1c-45.1,0-81.7-4.1-81.7-9.1c0-5.1,36.6-9.1,81.7-9.1 C634.2,1027.3,670.8,1031.4,670.8,1036.5z"></path> </g> <g> <g> <path class="st28" d="M580.7,744.9l-38.9-31.3c0,0-9.1,22-1.9,45c3.6,11.3-0.2,19.4,1.7,24.8c1.8,5,15,76.4,14.2,81.6 c-0.7,5.3-6.5,20.1-8.5,35.5c-2.4,18.6-0.5,79-2.3,95c-1.8,16.1,13,18.4,13.7,13c5.8-46.5,22.5-119.1,24.5-142.3 C585.3,843.2,583.3,800.9,580.7,744.9z"></path> <g> <path class="st29" d="M581.9,790.6L566.2,829c7.3,11.6,11.6,25.5,12.5,39.6c0.5,7.3,0,14.7,0.4,22c0,0.5,0.1,1.1,0.3,1.6 c2-10.9,3.4-19.9,3.9-25.8c1.4-16.4,0.8-42.4-0.6-75.9C582.5,790.5,582.2,790.5,581.9,790.6z"></path> </g> <path class="st28" d="M561,993.8c0,0-3.1,16.9-2.1,19c1,2.1,4.6,8.3,8.2,10.4c3.7,2.3,12,4.9,12.7,5.9c0.7,1,0.8,2.5-0.4,3.4 c-3,2.4-8.2,3.7-11.6,3.2c-11.1-1.6-12.4-6.4-18.9-7.1c-1.1-0.1-3.1,1.6-6.3,0.1c-3.1-1.5-4.7-4.3-4.5-7c0.3-4.6,2.9-8.5,4.6-12 c1.8-3.5,2.7-19.2,2.7-19.2"></path> <path class="st30" d="M580.2,1033.3c0.8-1.4,0.9-3.5,0.2-4c-1.1-0.7-4.8-3.1-7-4c-2.2-0.9-5.6-1.7-4.4-1.1c1.2,0.6-0.9,3.1-3,3 c-7-0.3-12.2-4.8-16.2-5.6c-5.7-1.3-8.3-8-8.6-9.1c-1.1,0.7-3.4,6.2-3.9,7.9c-0.4,1.6-1.2,4.4-0.7,6c0.3,1.1,1.1,3.3,0.8,5.7 c0,0,1.1,0.8,4.1,1.4c1.9,0.3,4.4,0,4.4,0l0.4-3.6c0,0,1.6-0.1,3.5,0.3c2,0.4,5.3,2.2,5.5,2.4c0.8,0.9,1.5,2.6,2.6,3.1 c2.8,1.3,5.6,1.9,9.2,2.1C574.6,1038,578.9,1035.7,580.2,1033.3z"></path> </g> <g> <path class="st28" d="M636.7,1029.7c-0.8-0.9-9.7-2.2-13.8-3.9c-4-1.6-8.8-6.9-9.8-9.1c-1-2.2-0.9-13.6-0.8-18.4 c0.5-33,5.8-113.6,6.5-132.9c1.2-33.6-3.5-68.1-17-121.9l-48.4-36.4c0,0-13.2,25.2-8.5,49c2.8,13.9,14.3,15.9,16.3,21.2 c2,5.4,32,92.1,32,92.1s-5.5,18.9-5.6,39.5c-0.1,17.6,8.4,70.5,10.1,90.7c0.2,3.9,1,13.4-0.1,16.4c-1.4,3.7-5,8.1-4.7,12.7 c0.1,2.7,2.1,5.3,5.5,6.3c3.4,1,5.3-1,6.5-1c6.8-0.3,8.7,4.3,20.4,4.2c3.6,0,8.8-2.1,11.6-4.9 C637.7,1032.1,637.5,1030.6,636.7,1029.7z"></path> <path class="st30" d="M637.7,1033.9c0.6-1.5,0.5-3.6-0.3-4c-1.2-0.5-5.4-2.3-7.7-2.9c-2.4-0.6-6-0.9-4.7-0.4 c1.3,0.4-0.6,3.2-2.7,3.4c-7.2,0.8-13.2-2.9-17.4-3.2c-6.1-0.4-8.4-6.7-8.8-7.7c-1,0.9-4,6.7-4.2,8.4c-0.2,1.6-0.7,4.5,0,6 c0.5,1,1.5,3.1,1.5,5.5c0,0,1.3,0.7,4.5,0.7c2,0.1,4.6-0.7,4.6-0.7l0-3.6c0,0,1.6-0.3,3.7-0.3c2.1,0.1,4.7,1.1,6,2 c1,0.7,2.1,2,3.2,2.3c3.4,0.8,5.8,1,9.5,0.6C632.5,1039.3,636.6,1036.4,637.7,1033.9z"></path> </g> <g> <g> <path class="st28" d="M714,604.8c2.4,0.7,10.3-2,12.3-5.3c0.7-1,1.1-2.3,0.9-3.5c1.2-1.4,3.2-6.3-0.3-5.3 c3.7-2.4,4.6-6.2,5.6-10.3c0.3-1.4-1.3-1.8-3,1c-2.3,3.8-6,6-10.6,7.1c-0.3-0.8,0.7-1,1.5-2.6c0.8-1.8,0.3-3-0.5-3.3 c-0.6-0.2-2,1.8-2.5,2.2c-1.8,1.5-3.6,3-5.4,4.6c-2,1.7-3,2.9-3.9,5.3c-0.1,0.4-1.1,4.5,0.7,3.9"></path> </g> <path class="st28" d="M597.3,642.9c18-0.2,50.3-3.3,54.8-4.2c17.5-3.4,62.2-34.1,62.2-34.1s0.9-7.2-6-9.1 c-11.3,9.2-51.9,20.9-57.3,24.1c-3.5,2.1-60.3-0.2-60.3-0.2"></path> </g> <path class="st31" d="M537.3,620.7c0,0-7.7,20.7-10.2,37l18.5,2.9v-26.3"></path> <path class="st32" d="M636.3,721.8L488,747c-1.6,0.3-3.1-0.8-3.4-2.4L471,664.7c-0.3-1.6,0.8-3.1,2.4-3.4l148.3-25.2 c1.6-0.3,3.1,0.8,3.4,2.4l13.6,79.8C639,720,637.9,721.5,636.3,721.8z"></path> <path class="st33" d="M631.2,716.7l-140,24.4c-1.4,0.2-2.7-0.7-3-2.1l-11.8-69.6c-0.2-1.4,0.7-2.7,2.1-3l140-24.4 c1.4-0.2,2.7,0.7,3,2.1l11.8,69.6C633.6,715.1,632.6,716.4,631.2,716.7z"></path> <path class="st34" d="M498.5,734.6l-2.3,0.4c-1.2,0.2-2.4-0.6-2.6-1.8l-10.2-60c-0.2-1.2,0.6-2.4,1.8-2.6l2.3-0.4 c1.2-0.2,2.4,0.6,2.6,1.8l10.2,60C500.6,733.2,499.8,734.4,498.5,734.6z"></path> <path class="st34" d="M511.1,732.2l-2.3,0.4c-1.2,0.2-2.3-0.6-2.6-1.8l-10.2-60c-0.2-1.2,0.6-2.4,1.8-2.6l2.3-0.4 c1.2-0.2,2.4,0.6,2.6,1.8l10.2,60C513.1,730.8,512.3,731.9,511.1,732.2z"></path> <path class="st34" d="M523.7,729.7l-2.3,0.4c-1.2,0.2-2.4-0.6-2.6-1.8l-10.2-60c-0.2-1.2,0.6-2.3,1.8-2.6l2.3-0.4 c1.2-0.2,2.3,0.6,2.6,1.8l10.2,60C525.7,728.4,524.9,729.5,523.7,729.7z"></path> <path class="st34" d="M536.3,727.3l-2.3,0.4c-1.2,0.2-2.4-0.6-2.6-1.8l-10.2-60c-0.2-1.2,0.6-2.3,1.8-2.6l2.3-0.4 c1.2-0.2,2.4,0.6,2.6,1.8l10.2,60C538.3,726,537.5,727.1,536.3,727.3z"></path> <path class="st34" d="M548.8,724.9l-2.3,0.4c-1.2,0.2-2.3-0.6-2.6-1.8l-10.2-60c-0.2-1.2,0.6-2.4,1.8-2.6l2.3-0.4 c1.2-0.2,2.4,0.6,2.6,1.8l10.2,60C550.9,723.6,550,724.7,548.8,724.9z"></path> <path class="st34" d="M561.4,722.5l-2.3,0.4c-1.2,0.2-2.4-0.6-2.6-1.8l-10.2-60c-0.2-1.2,0.6-2.4,1.8-2.6l2.3-0.4 c1.2-0.2,2.3,0.6,2.6,1.8l10.2,60C563.4,721.2,562.6,722.3,561.4,722.5z"></path> <path class="st34" d="M574,720.1l-2.3,0.4c-1.2,0.2-2.4-0.6-2.6-1.8l-10.2-60c-0.2-1.2,0.6-2.4,1.8-2.6l2.3-0.4 c1.2-0.2,2.4,0.6,2.6,1.8l10.2,60C576,718.8,575.2,719.9,574,720.1z"></path> <path class="st34" d="M586.5,717.7l-2.3,0.4c-1.2,0.2-2.3-0.6-2.6-1.8l-10.2-60c-0.2-1.2,0.6-2.3,1.8-2.6l2.3-0.4 c1.2-0.2,2.4,0.6,2.6,1.8l10.2,60C588.6,716.4,587.8,717.5,586.5,717.7z"></path> <path class="st34" d="M599.1,715.3l-2.3,0.4c-1.2,0.2-2.4-0.6-2.6-1.8l-10.2-60c-0.2-1.2,0.6-2.4,1.8-2.6l2.3-0.4 c1.2-0.2,2.3,0.6,2.6,1.8l10.2,60C601.1,713.9,600.3,715.1,599.1,715.3z"></path> <path class="st34" d="M611.7,712.9l-2.3,0.4c-1.2,0.2-2.4-0.6-2.6-1.8l-10.2-60c-0.2-1.2,0.6-2.4,1.8-2.6l2.3-0.4 c1.2-0.2,2.4,0.6,2.6,1.8l10.2,60C613.7,711.5,612.9,712.7,611.7,712.9z"></path> <path class="st34" d="M624.3,710.5l-2.3,0.4c-1.2,0.2-2.3-0.6-2.6-1.8l-10.2-60c-0.2-1.2,0.6-2.4,1.8-2.6l2.3-0.4 c1.2-0.2,2.4,0.6,2.6,1.8l10.2,60C626.3,709.1,625.5,710.3,624.3,710.5z"></path> <g> <path class="st30" d="M550.1,706.9c-13.4,11.5-18.5,30.7-15.8,51.1c0.7,5.4,6.2,20.3,7,25.7c1.9,12.3,5.9,30.4,5.6,44.4 c17.9,13,54.4,11.9,70.9,2.2c1.8-16.9,1.5-30.4,0.2-53.9c-2-35.4-17.8-68.5-18.1-71.4"></path> </g> <g> <path class="st31" d="M599.5,673.1c-0.7,6.3,0,16.1,0.9,26.9c0.2,1.8,1,5.2,0.9,7.1c-0.1,1.1-0.6,2-1.4,2.8 c-1.9,1.9-5.6,3-9.7,3.8c-13.3,2.4-34.3,0.8-40.2,2c-5.6,1.1-11.3-0.8-11.3-4.2c0-2.4,2.2-3.7,2.4-8.3 c0.4-10.2,0.1-33.3-1.8-43.6c-3.9-21.7-5-34.5-2.3-58.7l40.6-11.5c3.1,0.5,1.8,10,4.9,10.6c2.3,0.4,15.1,12.6,18.8,27 c2.2,3.7,3.8,6.8,4.7,9.4c1.8,4.8,1.6,8.4,0,12.8C602.7,657.4,600.5,663.5,599.5,673.1z"></path> </g> <path class="st35" d="M599.5,673.1c-0.7,6.3,0,16.1,0.9,26.9c0.2,1.8,1,5.2,0.9,7.1c-0.1,1.1-0.6,2-1.4,2.8v0 c1.2-2.7-1.7-16-2.9-23.5c-1.3-7.5-0.9-22,1.8-31.2c2.6-9.2,3.6-13.5,3.6-13.5s2.1-3.1,3.5-5.5c1.8,4.8,1.6,8.4,0,12.8 C602.7,657.4,600.5,663.5,599.5,673.1z"></path> <path class="st31" d="M595.1,609.1c0,0,6.1-1.4,12,2.1c7.8,4.6,24.2,7.3,24.2,7.3s1.3,18.7-0.8,25.8c0,0-5.4-0.9-21.5,0.9 c-16.6,1.8-38.8,12.8-38.8,12.8"></path> <path class="st28" d="M595.2,546c-4-7.6-10.3-18.4-25.4-16.9c-15.1,1.5-28,11-27.8,22.3c0.2,11.3,7.8,24.9,10.8,32.7 c2.9,7.8,1.7,19.4,1.7,19.4l33.4-1.2c0,0-0.9-10.2,1.2-14.1c1.1-2.2,5.6-6.2,10.8-10.4c2.3-1.8,4.1-5.7,2.7-11.6 c-2-8.9-2.8-12.8-4.1-15.5C597.7,549,596.1,547.7,595.2,546z"></path> <g> <path class="st36" d="M594.6,606.9c-2-2.4-5.1-3.6-6.9-6.2c-1.7-2.4-2.8-6.1-2.4-9.1c0.2-1.8,1.2-3.5,2-5.1 c3.6-7.3,3.9-12.1-1.3-18c-1.7-1.9-3.4-4-4.2-6.4c-0.8-2.2-1.4-4.6,0.7-5.9c1.5-0.9,2.7-1,3.9,0c0.8,0.7,3.2,7.7,3.6,2.9 c0.4-4.6,2.1-5.8-1.9-14c-0.5-1-2.7-4.8-2.4-5.7c5.2,1,7,2.4,9.1,5.7c2.3-2.6-4.5-21.6-25.3-21.1c-5.3,0.1-10.7,0.5-15.4,2.9 c-4.7,2.4-9.9,6.6-9.6,10.8c-7.4,1.4-8.4,9-9,11.8c-0.8,4-1,8.1-0.4,12.2c0.8,6,3,11.7,4.2,17.7c1,4.8,1.2,10.2-0.7,14.8 c-1.8,4.4-6.2,6.8-8.4,11.1c-2.8,5.5-2.6,12.2,0.2,17.7c2.9,5.5,6.5,9,5.5,15.7c-0.3,2.2-2.3,12.3,7.1,20.5 c3.8,3.4,11,5.1,15.9,4.3c5-0.8,8.7-1.7,13.1-4.1c7.8-4.2,14.7-7,19.8-18.2c2.9-6.4-1.3-7.3,1.2-13.8c1.4-3.7,4.5-6.7,4.9-10.7 c0.3-3.4-0.9-6.8-3-9.4C594.8,607.1,594.7,607,594.6,606.9z"></path> </g> </g> </g> </g> <g> <path class="st37" d="M1316,901.2c-1.1-1.7-2.3-3.2-3.5-4.7c0,0,0,0,0,0c0,0-0.1-0.1-0.1-0.2c-0.7-0.8-1.4-1.7-2.2-2.5 c-13.2-15.9-14-29.5-14-29.8c-0.2-18.1-0.4-43.2-0.7-60.9c0-5-0.1-9.4-0.1-12.9c0-1.5,0-2.8,0-3.9c0,0,0.2-1.4,0.6-3.3 c0.3-1.9,0.7-4.2,1.1-6.1c0.4-2,0.8-4.2,1.1-6.7c0,0,0,0,0,0v0c0.7-5.6,1.1-12.4-0.1-19.6c2.4,0.2,4.6,0.6,6.6,1.4 c0,0-2.7-9.5-5.5-20.8c-1-4-2-8.2-3-12.4c-1.8-8-3.3-15.6-3.6-20.3c-0.6-9.5,2.1-23.4,3.9-38.9c0.4-3.7,0.8-7.5,1.1-11.4 c0.3-3.7,0.4-7.4,0.4-11.1c0-1.1,0-2.3-0.1-3.4c-0.4-9.9-2.7-18.4-6-25.8c-0.5-1.1-1-2.2-1.6-3.3c-3.5-6.9-7.8-13-12.3-18.6 c-1.4-4-3.6-5.6-3.6-5.6c-1.5-4.8-1-11.3-1-11.3c5.7-2.4,11.5-24.5,8.9-40.5c-0.1-1-0.3-1.9-0.6-2.8c-3.3-14-12.3-19.5-18.9-18.3 c-14.4-17.5-36.1,1.7-41.1,4c-6.2,3-12.7,5-17.6,5.6c-1.5,0.2-2.8,0.3-3.9,0.2c-1,0-1.8-0.1-2.5-0.4c1.1,14.8,6.6,21.8,13.5,24.4 c1.5,0.6,3.1,1,4.6,1.1c1.3,0.1,2.5,0.2,3.8,0.1c-0.3,1.2-0.5,4,2.2,8.1c0.3,0.5,1.7,1.3,1.8,1.9c0.6,2.1,0.1,4.3,0,6.1 c0,0.2,0,0.3,0,0.5c-0.3,1.5-0.7,3.6-1,5.6c-0.1,1.1-0.2,2.3-0.2,3.2c0,0.8,0.1,1.4,0.2,1.8c0.4,1.2,2,1.5,3.6,1.4 c0.6,0,1.2-0.1,1.8-0.1c0.3,0.5,0.5,1,0.7,1.5c2.1,4.2,4.5,7.9,7.5,11.1c0.8,0.3,1.7,0.6,2.7,0.7c4.2,0.5,9.8-0.9,15.6-3.2 c0.6,1.7,1,3.2,1.2,4.5c-1.5,0.5-2.4,0.8-2.4,0.8c-0.3,2.5,0,8.2,0,8.2c-1,0.9-1.9,1.8-2.7,2.7c-0.6,0.6-1,1.2-1.5,1.8 c-0.3,0.4-0.5,0.8-0.7,1.2c-6.2,9.5-11.1,20.9-15,33.1c-1.5,4.7-2.9,9.6-4.1,14.5c0,0.1,0,0.1-0.1,0.2c-0.7,0.1-1.5,0.3-2.3,0.4 c-10.3,1.8-28.4,5.5-47.4,10.8l-5.4,1.5l0.1,0.9c-2.9,0-7.6-0.4-10.3-0.1c-1.8,0.1-5.4,3.6-8.9,6.4c-2.8,3.2-5.3,6.1-4.6,6.5 c0.1,0.1,0.3,0.1,0.4,0.1c0.7,0,1.6-0.6,2.6-1.5c0.3,0.1,0.8,0.2,1.5,0c1.4-0.4,3.4-2.9,4.4-3.6c0.4-0.3,1.5-1,2.6-1.7 c1-0.2,2.3-0.3,3.3,0.1c0.3,0.7-0.1,1.5-0.8,2c-0.9,0.6-3.1,0.8-3.3,1.5c-0.2,0.6,0,1.8,3.1,1.2c3.1-0.6,5.4-1.9,6.5-2.6 c1-0.8,2.1-1.1,4.4-1.4l0.2,1.2c0,0,23.6,0.2,45.8-0.3c1.2,0,2.4-0.1,3.6-0.1c-0.3,1.7-0.6,3.5-0.9,5.2c-0.4,0.1-0.9,0.1-1.4,0.1 l-8.1,0.2c-0.2-0.1-0.4-0.1-0.6-0.1h-74.7l-5.5-15.3l-4.1-11.4l-5.3-14.5l-9.5-26.3c-0.4-1.2-1.8-1.8-2.9-1.4l-1,0.4 c-1.2,0.4-1.8,1.8-1.4,3l8.8,24.4l5.3,14.5l4.1,11.4l5.6,15.5c-1.8-1.5-2.8-1.7-2.5-0.1c0.3,2.1,2.6,5,2.6,5c1.8,2.1,2.1,2.9,6,4.9 c2,1.1,6.9,2.1,9.7,2.7c1.3,0.3,2.6,0.2,3.8-0.1c1.5-0.4,3.9-0.8,6.9-0.9l-0.1,2.4c0,0,24.4,2.6,41.3,5c7,1,13.8,1.6,20.1,1.9 c-0.2,1.8-0.4,3.6-0.6,5.3c-0.6,6.1-1.1,12-1.5,17.6c-0.3,4.4-0.6,8.5-0.8,12.4c-0.8,16.2-1,27.4-1.7,28.8c0,0,2.1,2.1,9.4,2.6 c0.1,1.5,0.2,3,0.3,4.5c0,0,0,0,0,0c-0.3,2.3-0.9,11.4-1.7,23.2c-0.3,4-0.6,8.4-0.9,12.9c-1.3,18.6-2.8,39.6-3.7,51.1 c-0.6,1.3-0.9,3.2-0.8,5.7c0,1.3,0,14.2,0,15.8c0.3,6,0.8,15.5,1.4,27h30.5c-0.2-1.1-0.4-2.2-0.6-3.3c-0.1-0.4-0.1-0.8-0.2-1.2 c0-0.7-0.1-1.5-0.3-2.5c-1.7-14.2-1.7-10.1,2.2-28.1c2-5.2,4.5-11.4,7.1-18c4.2,14.9,7.7,27.6,9.2,35.1c0,0.1,0,0.1,0,0.2 c0.1,0.4,0.1,0.8,0.2,1.1c0.1,0.5,0.3,1.1,0.6,1.8c0.1,0.2,0.2,0.4,0.3,0.6c0.4,1.1,1,2.2,1.8,3.5c0,0.1,0.1,0.1,0.1,0.2 c1.7,2.8,4,6.3,6.8,10.5h38.8C1316.6,902.2,1316.4,901.7,1316,901.2z"></path> </g> <g> <g class="st38"> <path class="st39" d="M1149.6,1030.6c0,3.5,52.5,6.3,117.2,6.3c64.7,0,117.2-2.8,117.2-6.3c0-3.5-52.5-6.3-117.2-6.3 C1202.1,1024.3,1149.6,1027.2,1149.6,1030.6z"></path> </g> <g> <path class="st28" d="M1216,997.9c0,0-0.6,16.6,0.2,20.4c0.7,3,10,3.3,11.1,1.7c1.1-1.6,2.6-20.8,2.6-20.8"></path> <path class="st40" d="M1229.9,1022.6c0,3.2-0.9,8.4-0.9,8.4h-11.2l-0.6-1.9c0,0-3.6,1.9-6.5,1.9h-9.5c-6.9,0-10.9-0.9-11.1-2.1 c-0.7-5.1,7.6-4.9,9.7-4.9c6.2,0,12.9-2.9,14.4-6c1.1-2.3,0.6-2.9,1.9-2.4c0,0,1.2,0.2,1.9,1.7c1.2,2.2,3.4,3.6,5.9,3.2 c1.4-0.2,2.8-0.8,3.8-1.8C1227.7,1018.6,1229.9,1019.5,1229.9,1022.6z"></path> </g> <g> <path class="st28" d="M1332.7,999.9c0,0,3.1,8.3,4.4,11c1.3,2.8,10.5-0.6,10.9-2.5c0.5-1.9-6.9-16.1-6.9-16.1"></path> <path class="st40" d="M1351.4,1010c1.2,3,2.9,8.7,2.9,8.7l-8.5,5.1l-1.7-1.3c0,0-1.9,3-4.5,4.7c-1.9,1.2-6.2,3-8.4,3.5 c-7.8,1.8-13.8,0.9-14.4-0.2c-2.6-4.5,7.7-6.9,9.7-7.7c5.8-2.3,8.4-7.9,8.6-11.3c0.1-2.5-0.5-2.9,0.8-3c0,0,2.6-0.4,4.2,3.5 c0.1,0,6.1-1.1,7.7-4.9C1347.9,1007,1350.3,1007,1351.4,1010z"></path> </g> <g> <path class="st30" d="M1285.2,786.3c0,0,0.9-5.7,1.6-9.4c2.3-11.8,5.9-35.4-13.4-54c0,0-22.7,10.2-40.9,11.4 c-14.3,1-17.6,0-17.6,0s-0.9,19.3,4.8,67.8L1285.2,786.3z"></path> <g> <path class="st30" d="M1346.1,996.2c-8.9,5.3-14.6,7.1-14.6,7.1l-1.3-2.4c-0.9-1.7-1.9-3.5-2.9-5.3l0,0c0,0-0.1-0.1-0.1-0.3 c-3.2-5.7-6.8-11.7-10.5-17.8c0,0,0,0,0,0c0,0,0-0.1-0.1-0.1c-20.2-33.1-46-70.4-55.1-85.1c0-0.1-0.1-0.1-0.1-0.2 c-0.8-1.2-1.3-2.4-1.8-3.5c-0.1-0.2-0.2-0.4-0.3-0.6c-0.3-0.7-0.5-1.4-0.6-1.9c-0.1-0.4-0.1-0.7-0.2-1.1c0,0,0-0.1,0-0.2 c-0.4-2.8,0.4-5,1.9-6.6c0.3-0.4,0.7-0.7,1.2-1.1c4.9-3.6,14.9-2.8,23,3c0.4,0.3,0.8,0.6,1.3,0.9c0.2,0.1,0.4,0.3,0.7,0.5 c6.8,5,14.1,11.4,19.6,19.7C1324.6,929.4,1335.7,972.1,1346.1,996.2z"></path> <path class="st30" d="M1286.3,884.4c0.3,15.5-5.4,19.1-11.7,17.5c-1.1-0.3-2.1-0.7-3.2-1.2c-4.2-2-8.3-5.9-10.6-9.4 c0-0.1-0.1-0.1-0.1-0.2c-0.5-0.7-1-1.7-1.4-2.6c-0.1-0.2-0.2-0.4-0.3-0.6c-0.3-0.7-0.5-1.4-0.6-1.9c-0.1-0.4-0.1-0.7-0.2-1.1 c0,0,0-0.1,0-0.2c-1.5-7.7-5.2-21-9.6-36.5c-2.5-8.8-5.2-18.2-8-27.7c-8.3-28.6-16.1-56.7-15.9-64.9c0.8-29.5,35.1-6,51.5,5.5 c6.9,4.9,8.7,13.3,8.8,21.1c0.1,7.3,0.8,79.2,1.1,99.2c0,0.5,0,1,0,1.4C1286.3,883.5,1286.3,884,1286.3,884.4z"></path> <path class="st30" d="M1286.1,864c0,0,0.7,15.3,16.4,32.5c0,0-22.6-6.8-23.8-8.1c-1.2-1.3-7-15.7-6.8-17.4 C1271.9,869.4,1286.1,864,1286.1,864z"></path> </g> <path class="st41" d="M1327,995.3c-3.2-5.7-6.8-11.7-10.5-17.8c0,0,0,0,0,0c0,0,0-0.1-0.1-0.1c-20.2-33.1-46-70.4-55.1-85.1 c0-0.1-0.1-0.1-0.1-0.2c-0.8-1.2-1.3-2.4-1.8-3.5c-0.1-0.2-0.2-0.4-0.3-0.6c-0.3-0.7-0.5-1.4-0.6-1.9c-0.1-0.4-0.1-0.7-0.2-1.1 c0,0,0-0.1,0-0.2c-1.5-7.7-5.2-21-9.6-36.5l25.8-69.3h9.4c0,0-10.6,32-14.9,46.4c-4.3,14.4-5.5,36.9-5.9,45.2 c-0.8,18.1,21.4,48.9,27.8,60.1C1297.8,942.7,1324.7,990.7,1327,995.3z"></path> <path class="st30" d="M1230.1,1011.3c-0.5,0-0.9,0-1.3,0c-9.5,0-14.9-1.1-14.9-1.1l0-2.7c0.8-41.8-3.9-110.2-4.8-131.8 c-0.1-1.5,0-14.5,0-15.8c-0.4-18.6,18.2-2,25,12.5c1.6,3.4,2.9,7.2,3.8,11.2c1.2,4.9,1.2,10.3,2.4,15.8 C1247.5,932,1233,984.3,1230.1,1011.3z"></path> <path class="st30" d="M1274.4,786.2c-0.1,0.4-30.8,76.7-36.8,93.2l0,0c-0.9,2.3-3.7,4.2-7.3,5.1c-8.3,2-20.5-1.3-21.1-17.8 c-0.1-1.8,0-3.8,0.2-5.9c1.4-13.3,6.2-86.8,6.9-93.9c0.7-7.1,2.3-17.4,6.1-18.6C1241.2,742.4,1279.9,759.7,1274.4,786.2z"></path> <path class="st30" d="M1242.3,866.3c-4.2,19.5-4.2,14.8-2.4,29.4c1.7,14.2-4.6-12.4-4.6-12.4l3.9-9.9L1242.3,866.3z"></path> </g> <path class="st42" d="M1156.8,665.3c0,0-4.2-0.7-4.6-0.3c-0.4,0.3-1.6,1-1.6,1v0.8c-0.2,0-0.3,0-0.3,0c-0.2,0.1-3.1,2-3.4,2.2 c-0.3,0.2-3.8,4.3-3.8,4.3s0.6,0.5,1.9,0.1c1.3-0.4,3.4-2.9,4.4-3.6c0.4-0.3,1.5-1,2.6-1.7c1.4-0.3,3.4-0.4,4.4,0.7 C1158,670.5,1156.8,665.3,1156.8,665.3z"></path> <path class="st28" d="M1175.9,659c0,0-7.5,2.4-9.8,2.9c-2.3,0.4-8.8-0.3-12.3,0c-1.8,0.2-5.4,3.6-8.9,6.4c-2.8,3.2-5.3,6.1-4.6,6.5 c1.6,1,5.5-4,8.8-6.3c2.5-1.8,4.5-1.7,5.6-0.9c1.1,0.8,0.6,1.9-0.3,2.5c-1,0.6-3.1,0.9-3.3,1.5c-0.2,0.6,0,1.8,3.1,1.2 c3.1-0.6,5.4-1.9,6.5-2.7c1-0.8,2.1-1.1,4.4-1.4c2.3-0.3,13.8-2.3,13.8-2.3"></path> <path class="st31" d="M1224.9,647.4l-2.4,19.8l-0.3,2c-0.7,0-1.3,0-1.9,0.1c-3,0.1-6.1,0.2-9.2,0.3c-22.2,0.5-45.8,0.3-45.8,0.3 l-1.4-8.8c21-6.1,41.6-10.3,52.9-12.3C1221.9,647.9,1224.9,647.4,1224.9,647.4z"></path> <g> <path class="st43" d="M1127.8,678l-0.9,0.3c-1.2,0.4-2.5-0.2-3-1.4l-24.4-67.7c-0.4-1.2,0.2-2.5,1.4-3l0.9-0.3 c1.2-0.4,2.5,0.2,3,1.4l24.4,67.7C1129.6,676.2,1129,677.6,1127.8,678z"></path> <path class="st43" d="M1203.8,680.7h-76.9c-1.5,0-2.7-1.2-2.7-2.7v-0.4c0-1.5,1.2-2.7,2.7-2.7h76.9c1.5,0,2.7,1.2,2.7,2.7v0.4 C1206.5,679.5,1205.3,680.7,1203.8,680.7z"></path> </g> <path class="st35" d="M1224.9,647.4l-2.4,19.8c-0.7,0.6-1.4,1.3-2.2,2.1c-3,0.1-6.1,0.2-9.2,0.3c1.6-8.2,4.7-17.8,5.7-20.9 C1221.9,647.9,1224.9,647.4,1224.9,647.4z"></path> <path class="st31" d="M1294.5,751.9c-10.1-4.1-25.1,0.4-53.5,7.4c-28.4,7-34.5,0.6-34.5,0.6c1-2.1,0.8-27.4,3.9-58.7 c0.7-6.7,1.5-13.7,2.5-20.9c4.3-29,11.9-59.7,26.1-81c7.1-10.5,27.1-15.6,27.1-15.6c10.9,13.4,21.7,29.3,21.7,53.3 c0,24-6.4,47.5-5.5,61.4C1283.4,712.3,1294.5,751.9,1294.5,751.9z"></path> <path class="st35" d="M1234.8,700.9c-5.7,0.7-14.4,0.9-24.4,0.3c0.7-6.7,1.5-13.7,2.5-20.9l0.9,0c5.3-0.1,9.8-3.7,11.2-8.8 c1.9-7.1,5.1-18.5,9.9-33.4c8.5-26.7,17.4-27.7,17.4-27.7s13-6.7,13.6,7.5C1266.5,631.8,1251.5,698.8,1234.8,700.9z"></path> <path class="st30" d="M1272.8,790.2c0,0,9.7-3.5,15.2-20.1l-6-10.5l-12.7,5.9c0,0-2.2,11.5-1.7,12 C1268,778.1,1272.8,790.2,1272.8,790.2z"></path> <path class="st28" d="M1154.8,684.9l-0.9-7.1c0,0-6.4,0.8-9.4,0.5c-3-0.4-6.6-2-11-2.8c-4.4-0.8-5.3,0.9-4.7,2 c0.8,1.2,5.8,1.9,5.8,1.9s0.7,0.6-2,0.6h-2.8c-1.3-0.2-3.2-1.4-3.3-1.5c-0.5-0.5-1-1-1.5-1.6c-2.9-3-4.7-4-4.4-1.9 c0.3,2.1,2.6,5,2.6,5c1.8,2.1,2.2,2.9,6.1,4.9c2,1,6.9,2.1,9.7,2.7c1.3,0.3,2.6,0.2,3.8-0.1c1.7-0.4,4.6-0.9,8.3-1 c2.4,0.1,3.9,0.1,3.9,0.1C1160.4,687,1157.5,685.8,1154.8,684.9z"></path> <path class="st31" d="M1251,604.9c0,0-8.9,1-17.4,27.7c-4.8,14.9-8,26.3-9.9,33.4c-1.4,5.1-5.9,8.7-11.2,8.8l-62.5,1.6l-0.4,12.4 c0,0,24.4,2.6,41.3,5c16.9,2.4,33.5,2.6,42.5,1.5c16.7-2,33.1-75.3,32.3-82.8C1264.4,600.9,1251,604.9,1251,604.9z"></path> <path class="st44" d="M1209.8,541.9c0,0-1.6,3.2,1.9,8.7c0.3,0.5,1.7,1.2,1.9,1.9c0.6,2.3,0,4.7-0.1,6.6 c2.7,9.5,6.7,18.4,12.6,24.6c6,2.7,17.8-1.5,27.8-6.8c2.1-0.2,13.9-6,12.2-22.7c-1.7-16.7-14.8-32.1-15.7-32.4 c-0.9-0.4-26.7,4.4-27.8,4.6C1221.7,526.6,1209.8,541.9,1209.8,541.9z"></path> <path class="st32" d="M1247,548.3c0,0-6.8-1.5-7.1-10.4c-0.3-8.9-1.4-9.2-6.9-4.2c-5.4,5-42.1,24.4-45.3-16.7 c4.1,1.3,14.4-0.8,24.1-5.5c5-2.4,26.7-21.6,41.1-4.1c7.1-1.2,16.8,5.1,19.5,21c2.6,16-3.2,38.1-8.9,40.5c-3.7,1.5-5.4-2.2-6.8-9.8 c-0.6-3.9,9.7-11.6-1.1-21.5C1251.1,534.7,1241.7,540.2,1247,548.3z"></path> <path class="st44" d="M1263.4,569c0,0-1,11.5,3.3,15.1c-6.6,7.9-21.3,9.1-21.3,9.1s3.4-5.4-4.2-19.4 C1233.6,559.8,1263.4,569,1263.4,569z"></path> <path class="st31" d="M1243.3,594.8c0,0-0.3-5.7,0-8.2c0,0,14.2-4.9,21.1-6.2c0,0,2.2,1.5,3.6,5.6 C1268,585.9,1253.6,593.1,1243.3,594.8z"></path> <path class="st44" d="M1214,556.7c0,0-2.4,10.6-1.5,13.1c0.9,2.6,7.2,0.9,7.2,0.9L1214,556.7z"></path> </g> <g> <g> <path class="st26" d="M1445.6,487.3h-313.7c-5.7,0-10.3-4.6-10.3-10.3V337.5c0-5.7,4.6-10.3,10.3-10.3h313.7 c5.7,0,10.3,4.6,10.3,10.3V477C1455.9,482.7,1451.3,487.3,1445.6,487.3z"></path> <path class="st22" d="M1448.5,330.2v139.5c0,5.7-4.6,10.3-10.3,10.3h-313.7c-5.7,0-10.3-4.6-10.3-10.3V330.2 c0-5.7,4.6-10.3,10.3-10.3h313.7C1443.9,319.9,1448.5,324.5,1448.5,330.2z"></path> <path class="st45" d="M1448.5,330.2v20.1h-334.3v-20.1c0-5.7,4.6-10.3,10.3-10.3h313.7C1443.9,319.9,1448.5,324.5,1448.5,330.2z"></path> <path class="st46" d="M1435.4,367.1v96.3h-308.5v-30.8c12.4-17.1,29.5-28.4,68.4-5.4c37.4,22.1,37.3-49.1,80-45.4 c42.7,3.7,54.1,67.5,87.3,18.7C1395.7,351.8,1435.4,367.1,1435.4,367.1z"></path> <rect x="1126.9" y="366.5" class="st46" width="60.8" height="4.1"></rect> <rect x="1126.9" y="373.9" class="st46" width="102.7" height="4.1"></rect> <rect x="1126.9" y="381.2" class="st46" width="77.1" height="4.1"></rect> <rect x="1126.9" y="388.6" class="st46" width="93.1" height="4.1"></rect> <rect x="1126.9" y="395.9" class="st46" width="60.8" height="4.1"></rect> </g> <g> <path class="st26" d="M674.4,277.6c-14.1,37.8-50.5,64.8-93.2,64.8c-42.7,0-79.1-26.9-93.2-64.8H674.4z"></path> <g> <path class="st6" d="M489.5,178.9c-11.2,16.1-17.8,35.7-17.8,56.7c0,11.3,1.9,22.2,5.4,32.3l94-32.3L489.5,178.9z"></path> <path class="st6" d="M585.3,127v99.4l73.1,67.3c16.3-17.7,26.3-41.4,26.3-67.3C684.8,171.6,640.2,127,585.3,127z"></path> <path class="st31" d="M571.1,136.2c-33.8,0-63.7,16.9-81.6,42.7l81.6,56.7V136.2z"></path> <path class="st47" d="M552.6,333.3c6,1.1,12.1,1.7,18.5,1.7c28.9,0,54.9-12.3,73.1-32l-73.1-67.3L552.6,333.3z"></path> <path class="st48" d="M477,267.9c11.4,33.4,40.2,58.8,75.6,65.4l18.5-97.7L477,267.9z"></path> </g> </g> <g> <path class="st26" d="M522.4,494.4H389.9c-3.6,0-6.6,3-6.6,6.6v41.8c0,3.6,3,6.6,6.6,6.6h109.9c0.6,4.4,3.7,13.2,19.6,13.2 c0,0-6.6-1.2-7.9-13.2h11c3.6,0,6.6-3,6.6-6.6V501C529,497.4,526,494.4,522.4,494.4z"></path> <path class="st49" d="M519.9,491.1H387.5c-3.6,0-6.6,3-6.6,6.6v41.8c0,3.6,3,6.6,6.6,6.6h109.9c0.6,4.4,3.7,13.2,19.6,13.2 c0,0-6.6-1.2-7.9-13.2h11c3.6,0,6.6-3,6.6-6.6v-41.8C526.5,494.1,523.6,491.1,519.9,491.1z"></path> <path class="st50" d="M519.1,501.9H387.3c-1.1,0-2-0.9-2-2v-1.6c0-1.1,0.9-2,2-2h131.9c1.1,0,2,0.9,2,2v1.6 C521.1,501,520.2,501.9,519.1,501.9z"></path> <path class="st50" d="M519.1,511.5H387.3c-1.1,0-2-0.9-2-2v-1.6c0-1.1,0.9-2,2-2h131.9c1.1,0,2,0.9,2,2v1.6 C521.1,510.6,520.2,511.5,519.1,511.5z"></path> <path class="st50" d="M519.1,521.1H387.3c-1.1,0-2-0.9-2-2v-1.6c0-1.1,0.9-2,2-2h131.9c1.1,0,2,0.9,2,2v1.6 C521.1,520.2,520.2,521.1,519.1,521.1z"></path> <path class="st50" d="M519.1,530.6H387.3c-1.1,0-2-0.9-2-2V527c0-1.1,0.9-2,2-2h131.9c1.1,0,2,0.9,2,2v1.6 C521.1,529.7,520.2,530.6,519.1,530.6z"></path> <path class="st50" d="M519.1,540.2H387.3c-1.1,0-2-0.9-2-2v-1.6c0-1.1,0.9-2,2-2h131.9c1.1,0,2,0.9,2,2v1.6 C521.1,539.3,520.2,540.2,519.1,540.2z"></path> </g> <g> <path class="st26" d="M1292.9,515.2h132.5c3.6,0,6.6,3,6.6,6.6v41.8c0,3.6-3,6.6-6.6,6.6h-109.9c-0.6,4.4-3.7,13.2-19.6,13.2 c0,0,6.6-1.2,7.9-13.2h-11c-3.6,0-6.6-3-6.6-6.6v-41.8C1286.4,518.2,1289.3,515.2,1292.9,515.2z"></path> <path class="st49" d="M1295.4,511.9h132.5c3.6,0,6.6,3,6.6,6.6v41.8c0,3.6-3,6.6-6.6,6.6H1318c-0.6,4.4-3.7,13.2-19.6,13.2 c0,0,6.6-1.2,7.9-13.2h-11c-3.6,0-6.6-3-6.6-6.6v-41.8C1288.8,514.9,1291.8,511.9,1295.4,511.9z"></path> <path class="st51" d="M1391.4,561h35.6c1.7,0,3.1-1.4,3.1-3.1v-37c0-1.7-1.4-3.1-3.1-3.1h-35.6c-1.7,0-3.1,1.4-3.1,3.1v37 C1388.3,559.6,1389.7,561,1391.4,561z"></path> <path class="st51" d="M1296.1,523.2h84.9c0.9,0,1.6-0.7,1.6-1.6v-2.2c0-0.9-0.7-1.6-1.6-1.6h-84.9c-0.9,0-1.6,0.7-1.6,1.6v2.2 C1294.5,522.5,1295.2,523.2,1296.1,523.2z"></path> <path class="st51" d="M1315.2,532.6h66c0.8,0,1.4-0.6,1.4-1.4v-2.6c0-0.8-0.6-1.4-1.4-1.4h-66c-0.8,0-1.4,0.6-1.4,1.4v2.6 C1313.8,532,1314.4,532.6,1315.2,532.6z"></path> <path class="st51" d="M1296.1,542.1h84.9c0.9,0,1.6-0.7,1.6-1.6v-2.2c0-0.9-0.7-1.6-1.6-1.6h-84.9c-0.9,0-1.6,0.7-1.6,1.6v2.2 C1294.5,541.4,1295.2,542.1,1296.1,542.1z"></path> <path class="st51" d="M1303.2,551.5h77.8c0.8,0,1.5-0.7,1.5-1.5v-2.4c0-0.8-0.7-1.5-1.5-1.5h-77.8c-0.8,0-1.5,0.7-1.5,1.5v2.4 C1301.7,550.8,1302.4,551.5,1303.2,551.5z"></path> <path class="st51" d="M1349.9,561h31.7c0.5,0,1-0.4,1-1v-3.5c0-0.5-0.4-1-1-1h-31.7c-0.5,0-1,0.4-1,1v3.5 C1348.9,560.5,1349.3,561,1349.9,561z"></path> </g> </g> <g> <path class="st31" d="M1046.4,277.7H912.7c0,0,0.1-1.8,1.3-4.7c3.4-8,15.8-24.3,60.4-31.5l22-4.5 C996.4,236.9,1047.5,236.9,1046.4,277.7z"></path> <path class="st35" d="M1002.1,277.7h-89.4c0,0,0.1-1.8,1.3-4.7c3.3-1,7.4-0.9,10.6-0.1c3.3,0.9,5.5,1.4,5.5,1.4s46.9,0,58.2,0 C999.5,274.3,1002.1,277.7,1002.1,277.7z"></path> <path class="st28" d="M969.2,238.9c1.5,2.1,2.5,5,3.1,7.6c0.8,3.5,4.1,5.9,7.6,5.7c19.5-1.1,18.2-13.3,18.2-13.3 c-4-6.2-6.5-24.4-6.5-24.4"></path> <path class="st32" d="M923.5,182.7c0,0-0.8,24.5,10.2,24.2c11-0.4,0-27,0-27L923.5,182.7z"></path> <path class="st28" d="M989.1,209.8c0.4,3.6,0.5,6.9,0.2,9.3c0,0.3-0.1,0.7-0.2,1c-0.1,0.3-0.1,0.7-0.2,1 c-2.7,10.5-15.9,25.3-25.3,26.5c-1.2,0.1-2.4,0.1-3.6,0.1c-13-0.6-20.6-11.3-25-22.6c-0.1-0.4-0.3-0.8-0.4-1.2 c-3.9-10.5-5.1-21.4-5.5-25.2c-0.1-0.9-0.7-10.6,1.2-13.4c2.1-3.1,27.8-6.1,28.3-6.2c0.5,0,25.2,1.7,25.2,1.7 S987.8,197.5,989.1,209.8z"></path> <path class="st32" d="M993.1,209.4c0.4,3.6,0,6.7-0.3,9.1c0,0.3-0.1,0.7-0.2,1c-1.7,10.5-14.5,26.8-29,28.1 c-1.1,0.2-2.2,0.3-3.2,0.3c-15.6,0.6-21.1-11.2-25.4-22.8c-0.1-0.4-0.3-0.8-0.4-1.2c0,0,5.4,8.7,8.2,8.9c2.7,0.3-0.7-3.1,6.7-6 c4.7-1.8,11.8-1.7,15.1-1.3c3.1,0.4,8.6,2,10.5,2.3c0.5,0,0.9,0,1.1-0.1c2.6-1.3,8.9-11.3,9.8-16.8 C986.3,208.7,991,209,993.1,209.4z"></path> <path class="st32" d="M918.4,175.2c0,0,0.8,18.8,31.8,11.3c8.5-2.1,16-4,20.2-1.7c6.3,19.9,6.5,29.5,8.8,28.7 c2.8-1-4.8-17.5,4.9-15.7c7.4,1.4-0.3,19.6-0.3,19.6s9,1.2,9.3-3c0.2-2.5,0.4-38.2-5.7-46.6c-6.1-8.5-13.4-8.1-13.4-8.1 s-7.7-6.5-26-1.2c-18.3,5.3-27.9-1.4-27.8-0.9C920.1,158.1,917.1,163.4,918.4,175.2z"></path> <path class="st26" d="M1046.4,277.6c0,0-1.6,32.2-14.8,52.7v0c0,0-0.1,0.2-0.3,0.5c-0.1,0.1-0.3,0.3-0.3,0.5 c-4,6-26,38.6-40.2,51.6c-15.6,14.3-33.6,30.5-33.6,30.5l-0.7-0.6c-2.3,2.2-4.5,4.5-5.1,5.5c-1.2,2.2-2.4,10.3-4.8,11.2 c-0.3,0.1-0.7,0.2-1.1,0.3c-0.9,0.7-2.1,1.3-3.4,1.5c-2.6,0.4-6.2-0.5-7.2-0.7c-0.8,0.7-1.6,1.7-3.3,2.6c-3.1,1.6-6.1,3.8-8.7,4.6 c-2.6,0.8-3,0-2.4-1.6c0.5-1.7,5.5-4.4,7.2-5.8c1.7-1.4,4.8-5.3,5.8-7.7c1.1-2.4,1.1-3.7,0-3.7s-4.5,2.1-7,2.6 c-2.6,0.6-3.8-0.1-2.6-1.6c1.2-1.5,4.8-5.9,9-7c4.2-1.1,5.5-1.1,8.5-3.4c1.5-1.1,3.3-3.6,4.8-5.8l-1-0.9c0,0,28.1-39.2,49.1-69.5 c0.5-0.7,0.9-1.2,1.4-1.9c11.9-24,13.1-43,13-50.5c-1.4-2.7-3.6-3.4-3.6-3.4L1046.4,277.6z"></path> <path class="st28" d="M945.9,399.5c0,0-4.5,7.8-7.5,10.1c-3,2.3-4.2,2.3-8.5,3.4c-4.2,1.1-7.8,5.5-9.1,7c-1.2,1.5,0,2.2,2.6,1.6 c2.6-0.5,5.9-2.6,7-2.6c1.1,0,1.1,1.3,0,3.7c-1.1,2.4-4.1,6.4-5.9,7.7c-1.8,1.4-6.7,4.1-7.2,5.7c-0.5,1.6-0.1,2.5,2.5,1.6 c2.6-0.8,5.6-3,8.7-4.6c1.7-0.9,2.5-1.9,3.3-2.6c1,0.3,4.7,1.1,7.2,0.7c1.3-0.2,2.5-0.8,3.4-1.5c0.4-0.1,0.7-0.1,1.1-0.3 c2.3-0.9,3.5-9,4.8-11.2c1.2-2.2,10.2-10.3,10.2-10.3L945.9,399.5z"></path> <path class="st31" d="M1028.7,330.4L1028.7,330.4c13.2-20.5,17.7-52.8,17.7-52.8l-16.9-11.5l-8.6,4.2c-5.4-2.4-14.7-5.9-14.7-5.9 l-4.1,13.2c0,0,2.2,0.8,3.6,3.4c0.1,7.5-1.1,26.5-13,50.5c-0.5,0.6-0.9,1.2-1.4,1.9c-21,30.3-49.1,69.4-49.1,69.4l12,10.6 c0,0,18-16.2,33.6-30.5c14.2-13,36.2-45.6,40.2-51.6c0.1-0.2,0.2-0.3,0.3-0.5C1028.6,330.6,1028.7,330.4,1028.7,330.4z"></path> <path class="st26" d="M935.1,285.6c-0.2,0-0.3-0.1-0.5-0.1c0.5,0.6,0.9,1,1,1.2c0.5,0.5,0.2,0.9,0.2,0.9c-0.7,0.7-1.2,0.6-2.1,0.6 c-0.4,0-1-0.3-1.5-0.7c-0.6,0.5-1.1,0.5-1.9,0.4c-0.8-0.1-1.7-0.9-3-2.1c0.2,0.3,0,0.6,0,0.6c-0.7,0.7-1.3,0.6-2.1,0.6 c-0.8-0.1-1.9-0.9-3.2-2.4c-0.4-0.4-1-1.2-1.7-2c-0.6-0.4-1.2-0.8-1.7-1.1c-1-0.7-2.1-0.8-2.5-0.8c-0.1,0-0.1,0-0.1,0v0 c-6.3-0.1-9.2-2.9-16.9-2.9h35.2c-0.1,0-0.1,0.1-0.2,0.1c-0.3,0.1-1.2,0.3-2.1,0.4c0,0,0.1,0.1,0.2,0.2c0.5,0.5,0.9,1,1.3,1.5 c1.4,1.7,3.3,3.9,3.6,4.3c0.5,0.6,0.2,0.9,0.2,0.9C936.5,285.7,935.9,285.7,935.1,285.6z"></path> <path class="st28" d="M933.6,285.6c-0.2,0-0.3-0.1-0.5-0.1c0.5,0.6,0.9,1,1,1.2c0.5,0.5,0.2,0.9,0.2,0.9c-0.7,0.7-1.2,0.6-2.1,0.6 c-0.4,0-1-0.3-1.5-0.7c-0.6,0.5-1.1,0.5-1.9,0.4c-0.8-0.1-1.7-0.9-3-2.1c0.2,0.3,0,0.6,0,0.6c-0.7,0.7-1.3,0.6-2.1,0.6 c-0.8-0.1-1.9-0.9-3.2-2.4c-0.4-0.4-1-1.2-1.7-2c-0.6-0.4-1.2-0.8-1.7-1.1c-1-0.7-2.1-0.8-2.5-0.8c-0.1,0-0.1,0-0.1,0v0 c-6.3-0.1-9.2-2.9-16.9-2.9c0,0,18.2-8.7,29.1-2.5c1.1,0.2,3.3,0.5,4.6,0.5c3.2,0,2.3,1.7,1.3,2.2c-0.3,0.1-1.2,0.3-2.1,0.4 c0,0,0.1,0.1,0.2,0.2c0.5,0.5,0.9,1,1.3,1.5c1.4,1.7,3.3,3.9,3.6,4.3c0.5,0.6,0.2,0.9,0.2,0.9C935,285.7,934.4,285.7,933.6,285.6z"></path> <linearGradient id="SVGID_3_" gradientUnits="userSpaceOnUse" x1="926.6169" y1="276.659" x2="933.4492" y2="276.659"> <stop offset="0" style="stop-color:#F7941E"></stop> <stop offset="1" style="stop-color:#F7941E;stop-opacity:0"></stop> </linearGradient> <path class="st52" d="M932.5,277.8c-0.3,0.1-1.2,0.3-2.1,0.4c0,0-2.7-2.5-3.8-3.1c1.1,0.2,3.3,0.5,4.6,0.5 C934.4,275.7,933.5,277.3,932.5,277.8z"></path> </g> <g> <g> <path class="st39" d="M1517.4,1030.2c0,3.7-27,6.8-60.4,6.8c-33.3,0-60.4-3-60.4-6.8c0-2.6,12.9-4.8,31.9-5.9l1,3.7 c0.4,1.5,1.8,2.6,3.4,2.6h44.4c1.6,0,3-1.1,3.4-2.6l1-3.9C1502.8,1025.1,1517.4,1027.5,1517.4,1030.2z"></path> </g> <path class="st53" d="M1432.9,950c0,0-2.1-21.6-30.5-32.2c-28.4-10.6-48.5,2-48.5,2s2.8-26,25.2-24.9c22.4,1.2,27,15.7,27,15.7 s12.2-12.7,22.8-3.3c8.9,7.8,7.4,23.3,7.4,23.3s8.4,1,7.2,14.4c-0.2,1.7-0.4,3.2-0.7,4.6"></path> <linearGradient id="SVGID_4_" gradientUnits="userSpaceOnUse" x1="1353.8756" y1="922.4137" x2="1443.6809" y2="922.4137"> <stop offset="0" style="stop-color:#2484C6"></stop> <stop offset="1" style="stop-color:#2484C6;stop-opacity:0"></stop> </linearGradient> <path class="st54" d="M1432.9,950c0,0-2.1-21.6-30.5-32.2c-28.4-10.6-48.5,2-48.5,2s2.8-26,25.2-24.9c22.4,1.2,27,15.7,27,15.7 s12.2-12.7,22.8-3.3c8.9,7.8,7.4,23.3,7.4,23.3s8.4,1,7.2,14.4c-0.2,1.7-0.4,3.2-0.7,4.6"></path> <g> <g> <path class="st55" d="M1448.7,949.8c-0.3-67.5-34.2-97.5-34.5-97.8l1-1.2c0.3,0.3,34.8,30.7,35.1,99L1448.7,949.8z"></path> </g> <g> <path class="st55" d="M1416.1,852.7c0,0-7.1,0.7-11.3-2.6c-2.2-1.7-2.5-4.8-0.8-7c1.7-2.2,4.8-2.5,7-0.8 C1415.3,845.7,1416.1,852.7,1416.1,852.7z"></path> </g> <g> <path class="st55" d="M1418.8,855.4c0,0-0.7,7.1-4.7,10.6c-2.1,1.8-5.2,1.6-7-0.5c-1.8-2.1-1.6-5.2,0.5-7 C1411.8,854.9,1418.8,855.4,1418.8,855.4z"></path> </g> <g> <path class="st55" d="M1418.6,855.6c0,0,1.2-7.1,5.4-10.3c2.2-1.6,5.3-1.2,7,1c1.6,2.2,1.2,5.3-1,7 C1425.5,856.6,1418.6,855.6,1418.6,855.6z"></path> </g> <g> <path class="st55" d="M1429,869.1c0,0-1.5,7-5.9,10c-2.3,1.5-5.4,0.9-6.9-1.3c-1.5-2.3-0.9-5.4,1.3-6.9 C1422.1,867.8,1429,869.1,1429,869.1z"></path> </g> <g> <path class="st55" d="M1428.7,869.3c0,0,2-6.9,6.6-9.6c2.4-1.4,5.4-0.6,6.8,1.8c1.4,2.4,0.6,5.4-1.8,6.8 C1435.5,871.1,1428.7,869.3,1428.7,869.3z"></path> </g> </g> <g> <g> <path class="st56" d="M1459.7,949.6c-7.8-89.5,33.5-133.5,33.9-133.9l-1.5-1.4c-0.4,0.4-42.4,45-34.5,135.5L1459.7,949.6z"></path> </g> <g> <path class="st56" d="M1491.1,816.8c0,0,9.6,0.1,14.7-4.8c2.7-2.5,2.8-6.7,0.2-9.4c-2.5-2.7-6.7-2.8-9.4-0.2 C1491.3,807.5,1491.1,816.8,1491.1,816.8z"></path> </g> <g> <path class="st56" d="M1487.8,820.8c0,0,1.7,9.4,7.5,13.5c3,2.1,7.1,1.4,9.3-1.5c2.1-3,1.4-7.1-1.5-9.3 C1497,819.2,1487.8,820.8,1487.8,820.8z"></path> </g> <g> <path class="st56" d="M1488.2,821c0,0-2.4-9.2-8.4-13c-3.1-1.9-7.2-0.9-9.1,2.2c-1.9,3.1-0.9,7.2,2.2,9.1 C1479.1,823.2,1488.2,821,1488.2,821z"></path> </g> <g> <path class="st56" d="M1476,840.2c0,0,2.8,9.1,9,12.5c3.2,1.8,7.2,0.6,9-2.6c1.8-3.2,0.6-7.2-2.6-9 C1484.9,837.6,1476,840.2,1476,840.2z"></path> </g> <g> <path class="st56" d="M1476.3,840.4c0,0-3.5-8.9-9.9-11.9c-3.3-1.5-7.3-0.1-8.8,3.2c-1.5,3.3-0.1,7.3,3.2,8.8 C1467.6,843.7,1476.3,840.4,1476.3,840.4z"></path> </g> <g> <path class="st56" d="M1467.4,862c0,0,3.6,8.8,10.1,11.7c3.4,1.5,7.3-0.1,8.7-3.4c1.5-3.4-0.1-7.3-3.4-8.7 C1476,858.6,1467.4,862,1467.4,862z"></path> </g> <g> <path class="st56" d="M1467.8,862.1c0,0-4.3-8.6-10.9-10.9c-3.5-1.2-7.2,0.6-8.5,4c-1.2,3.5,0.6,7.2,4,8.5 C1459.3,866.1,1467.8,862.1,1467.8,862.1z"></path> </g> <g> <path class="st56" d="M1461.4,883.1c0,0,5.1,8.1,11.9,9.8c3.6,0.9,7.2-1.3,8-4.8c0.9-3.6-1.3-7.2-4.8-8 C1469.4,878.3,1461.4,883.1,1461.4,883.1z"></path> </g> <g> <path class="st56" d="M1461.8,883.2c0,0-5.6-7.7-12.6-9c-3.6-0.6-7,1.8-7.7,5.4c-0.6,3.6,1.8,7,5.4,7.7 C1454.2,888.6,1461.8,883.2,1461.8,883.2z"></path> </g> <g> <path class="st56" d="M1458.5,905c0,0,5.8,7.6,12.8,8.7c3.6,0.6,7-1.9,7.6-5.6c0.6-3.6-1.9-7-5.6-7.6 C1466,899.4,1458.5,905,1458.5,905z"></path> </g> <g> <path class="st56" d="M1458.9,905c0,0-6.3-7.2-13.4-7.7c-3.7-0.3-6.9,2.4-7.1,6.1c-0.3,3.7,2.4,6.9,6.1,7.1 C1451.8,911.1,1458.9,905,1458.9,905z"></path> </g> <g> <path class="st56" d="M1457.5,931.4c0,0,5.8,7.6,12.8,8.7c3.6,0.6,7-1.9,7.6-5.6c0.6-3.6-1.9-7-5.6-7.6 C1465,925.8,1457.5,931.4,1457.5,931.4z"></path> </g> <g> <path class="st56" d="M1457.9,931.4c0,0-6.3-7.2-13.4-7.7c-3.7-0.3-6.9,2.4-7.1,6.1c-0.3,3.7,2.4,6.9,6.1,7.1 C1450.8,937.5,1457.9,931.4,1457.9,931.4z"></path> </g> </g> <path class="st53" d="M1466.1,950c0,0-12.4-39.9,13.3-46.1c0,0,1.3-53.5,39.4-40c0,0,5.5-20.9,27.7-19.9 c22.1,1,21.1,22.2,21.1,22.2s20.2,3.2,20.2,20.1c0,0-99-27.9-107.5,63.7"></path> <linearGradient id="SVGID_5_" gradientUnits="userSpaceOnUse" x1="1463.1163" y1="896.9745" x2="1587.7477" y2="896.9745"> <stop offset="0" style="stop-color:#2484C6"></stop> <stop offset="1" style="stop-color:#2484C6;stop-opacity:0"></stop> </linearGradient> <path class="st57" d="M1466.1,950c0,0-12.4-39.9,13.3-46.1c0,0,1.3-53.5,39.4-40c0,0,5.5-20.9,27.7-19.9 c22.1,1,21.1,22.2,21.1,22.2s20.2,3.2,20.2,20.1c0,0-99-27.9-107.5,63.7"></path> <path class="st58" d="M1411.1,958.4l18.4,69.5c0.4,1.5,1.8,2.6,3.4,2.6h44.4c1.6,0,3-1.1,3.4-2.6l18.4-69.5 c1.1-4.4-2.1-8.6-6.6-8.6h-74.7C1413.2,949.8,1410,954,1411.1,958.4z"></path> <line class="st59" x1="1481.1" y1="958.2" x2="1468.7" y2="1023.4"></line> </g> </svg> 